<svg width="200" height="200" viewBox="0 0 52.917 52.917">
  <path d="M49.372 39.688l-11.404 6.705-11.51 6.524-11.509-6.524-11.404-6.705-.105-13.23.105-13.229 11.404-6.705L26.459 0l11.509 6.524 11.404 6.705.105 13.23z" fill="#0084ff"/>
  <path d="M9.078 37.728v-22.54h5.46q10.317 0 10.317 11.588 0 10.952-10.317 10.952zm5.46-19.523h-2.286v16.507h2.286q6.984 0 6.984-7.936 0-8.571-6.984-8.571zm22.666 19.84q-10.095 0-10.095-11.618 0-5.508 2.62-8.524 2.618-3.032 7.348-3.032 2.365 0 4.143.746 1.778.73 2.619 2.08l-2.365 2.349q-.73-1.08-1.841-1.667-1.096-.587-2.365-.587-3.207 0-4.984 2.222-1.778 2.206-1.778 6.254 0 8.857 7.079 8.857.794 0 1.476-.095.699-.096 1.286-.223v-5.333h-4.603v-3.016h7.619v10.635q-.667.206-2.35.587-1.666.365-3.809.365z" fill="#fffffc"/>
</svg>