<?xml version="1.0" encoding="UTF-8" standalone="no"?>
<svg
   xmlns:dc="http://purl.org/dc/elements/1.1/"
   xmlns:cc="http://creativecommons.org/ns#"
   xmlns:rdf="http://www.w3.org/1999/02/22-rdf-syntax-ns#"
   xmlns:svg="http://www.w3.org/2000/svg"
   xmlns="http://www.w3.org/2000/svg"
   xmlns:sodipodi="http://sodipodi.sourceforge.net/DTD/sodipodi-0.dtd"
   xmlns:inkscape="http://www.inkscape.org/namespaces/inkscape"
   id="Layer_1"
   viewBox="0 0 290.10001 34.5"
   version="1.1"
   sodipodi:docname="logo.svg"
   width="290.10001"
   height="34.5"
   inkscape:version="0.92.4 (5da689c313, 2019-01-14)">
  <metadata
     id="metadata26">
    <rdf:RDF>
      <cc:Work
         rdf:about="">
        <dc:format>image/svg+xml</dc:format>
        <dc:type
           rdf:resource="http://purl.org/dc/dcmitype/StillImage" />
        <dc:title></dc:title>
      </cc:Work>
    </rdf:RDF>
  </metadata>
  <defs
     id="defs24" />
  <sodipodi:namedview
     pagecolor="#ffffff"
     bordercolor="#666666"
     borderopacity="1"
     objecttolerance="10"
     gridtolerance="10"
     guidetolerance="10"
     inkscape:pageopacity="0"
     inkscape:pageshadow="2"
     inkscape:window-width="1973"
     inkscape:window-height="1007"
     id="namedview22"
     showgrid="false"
     inkscape:zoom="1.8766667"
     inkscape:cx="145"
     inkscape:cy="13.1"
     inkscape:window-x="0"
     inkscape:window-y="0"
     inkscape:window-maximized="0"
     inkscape:current-layer="Layer_1" />
  <path
     id="Letter_D"
     d="m 22.5,18.1 c 0,1.5 -0.1,2.9 -0.3,4.3 -0.2,1.4 -0.6,2.6 -1.1,3.8 -0.5,1.2 -1.2,2.3 -2,3.2 -0.8,1 -1.8,1.8 -3,2.5 -1.2,0.7 -2.5,1.2 -4.1,1.6 -1.6,0.4 -3.3,0.6 -5.3,0.6 H 0 V 2.9 h 8 c 4.9,0 8.5,1.3 10.9,3.8 2.4,2.5 3.6,6.2 3.6,11.4 z m -4.4,0.3 c 0,-2.2 -0.2,-4.1 -0.6,-5.6 C 17.1,11.3 16.5,10 15.6,9.1 14.7,8.2 13.7,7.5 12.4,7.1 11.1,6.7 9.6,6.5 7.9,6.5 H 4.2 v 23.9 h 3.2 c 7.1,0 10.7,-4 10.7,-12 z"
     inkscape:connector-curvature="0" />
  <path
     id="Letter_G"
     d="m 182.6,8.2 c -1.2,-0.6 -2.3,-1.1 -3.6,-1.4 -1.2,-0.3 -2.6,-0.5 -4,-0.5 -1.6,0 -3.1,0.3 -4.4,0.9 -1.3,0.6 -2.4,1.4 -3.3,2.5 -0.9,1.1 -1.6,2.4 -2,3.9 -0.5,1.5 -0.7,3.2 -0.7,5 0,1.9 0.2,3.6 0.6,5.1 0.4,1.5 1,2.8 1.8,3.8 0.8,1.1 1.9,1.9 3.1,2.4 1.2,0.5 2.8,0.8 4.5,0.8 0.3,0 0.6,0 1,0 0.4,0 0.7,-0.1 1.1,-0.1 0.4,0 0.7,-0.1 1,-0.2 0.3,-0.1 0.6,-0.2 0.9,-0.3 v -9.9 h -6.4 v -3.5 h 10.6 v 15.9 c -0.6,0.3 -1.3,0.6 -2.1,0.8 -0.7,0.2 -1.5,0.4 -2.2,0.6 -0.7,0.2 -1.5,0.3 -2.2,0.4 -0.7,0.1 -1.5,0.1 -2.2,0.1 -2.1,0 -4,-0.3 -5.8,-1 -1.7,-0.7 -3.2,-1.7 -4.4,-3 -1.2,-1.3 -2.1,-2.9 -2.8,-4.9 -0.6,-2 -1,-4.2 -1,-6.8 0,-2.6 0.4,-4.8 1.1,-6.9 0.7,-2 1.7,-3.7 3,-5.1 1.3,-1.4 2.9,-2.5 4.7,-3.2 1.8,-0.7 3.8,-1.1 6,-1.1 1.4,0 2.7,0.1 4,0.4 1.3,0.3 2.5,0.6 3.6,1.2 v 4.1 z"
     inkscape:connector-curvature="0" />
  <g
     id="Other_Letters"
     transform="translate(-5,-28.6)">
    <path
       d="m 53.3,49.4 c 0,0.6 0,1.1 0,1.5 0,0.4 0,0.8 -0.1,1.1 H 36.4 c 0,2.5 0.7,4.3 2.1,5.6 1.4,1.3 3.3,2 5.9,2 0.7,0 1.4,0 2.1,-0.1 0.7,0 1.4,-0.1 2,-0.2 0.7,-0.1 1.3,-0.2 1.9,-0.3 0.6,-0.1 1.2,-0.2 1.7,-0.4 V 62 c -1.1,0.3 -2.4,0.6 -3.8,0.8 -1.4,0.2 -2.9,0.3 -4.4,0.3 -2,0 -3.8,-0.3 -5.3,-0.8 -1.5,-0.5 -2.7,-1.4 -3.6,-2.4 -0.9,-1.1 -1.6,-2.3 -2.1,-3.9 -0.4,-1.5 -0.7,-3.3 -0.7,-5.2 0,-1.7 0.2,-3.3 0.7,-4.8 0.5,-1.5 1.2,-2.8 2.1,-4 0.9,-1.1 2.1,-2 3.4,-2.7 1.4,-0.7 2.9,-1 4.6,-1 1.7,0 3.2,0.3 4.4,0.8 1.3,0.5 2.4,1.3 3.3,2.2 0.9,1 1.6,2.1 2,3.5 0.4,1.4 0.6,2.9 0.6,4.6 z M 49,48.8 c 0.1,-1.1 -0.1,-2 -0.3,-2.9 -0.2,-0.9 -0.6,-1.6 -1.2,-2.3 -0.5,-0.6 -1.2,-1.1 -2,-1.5 -0.8,-0.4 -1.7,-0.5 -2.8,-0.5 -0.9,0 -1.7,0.2 -2.5,0.5 -0.7,0.4 -1.4,0.8 -1.9,1.5 -0.5,0.6 -1,1.4 -1.3,2.3 -0.3,0.9 -0.5,1.9 -0.6,2.9 z"
       id="path4"
       inkscape:connector-curvature="0" />
    <path
       d="m 57.7,38.7 h 4.7 l 5.9,15.8 1.3,3.9 1.3,-4 5.8,-15.7 h 4.6 l -9.4,24 h -4.8 z"
       id="path6"
       inkscape:connector-curvature="0" />
    <path
       d="m 95,42.1 h -7.1 v -3.4 h 11.3 v 20.5 h 7.1 v 3.5 H 87.1 V 59.2 H 95 Z m 1.4,-13.5 c 0.5,0 0.9,0.1 1.3,0.3 0.4,0.2 0.7,0.4 1,0.7 0.3,0.3 0.5,0.7 0.7,1 0.2,0.3 0.3,0.8 0.3,1.3 0,0.5 -0.1,0.9 -0.2,1.3 -0.2,0.4 -0.4,0.8 -0.7,1.1 -0.3,0.3 -0.6,0.5 -1,0.7 -0.4,0.2 -0.8,0.3 -1.3,0.3 -0.5,0 -0.9,-0.1 -1.3,-0.2 -0.4,-0.2 -0.7,-0.4 -1,-0.7 -0.3,-0.3 -0.5,-0.6 -0.7,-1 -0.2,-0.4 -0.2,-0.8 -0.2,-1.3 0,-0.5 0.1,-0.9 0.3,-1.3 0.2,-0.4 0.4,-0.7 0.7,-1 0.3,-0.3 0.6,-0.5 1,-0.7 0.2,-0.4 0.7,-0.5 1.1,-0.5 z"
       id="path8"
       inkscape:connector-curvature="0" />
    <path
       d="m 113.7,38.7 h 3.7 l 0.2,3.9 c 0.7,-0.8 1.4,-1.5 2,-2.1 0.7,-0.5 1.3,-1 1.9,-1.3 0.6,-0.3 1.3,-0.6 1.9,-0.7 0.7,-0.1 1.3,-0.2 2,-0.2 2.5,0 4.3,0.7 5.6,2.2 1.3,1.5 1.9,3.7 1.9,6.6 v 15.6 h -4.1 V 47.3 c 0,-1.9 -0.3,-3.3 -1,-4.2 -0.7,-0.9 -1.7,-1.3 -3.1,-1.3 -0.5,0 -1,0.1 -1.5,0.2 -0.5,0.2 -1,0.4 -1.5,0.8 -0.5,0.4 -1.1,0.9 -1.7,1.5 -0.6,0.6 -1.3,1.4 -2.1,2.4 v 15.9 h -4.1 V 38.7 Z"
       id="path10"
       inkscape:connector-curvature="0" />
    <path
       d="m 215.1,50.5 c 0,1.9 -0.3,3.6 -0.8,5.1 -0.5,1.6 -1.3,2.9 -2.3,4 -1,1.1 -2.2,2 -3.6,2.6 -1.4,0.6 -3,0.9 -4.8,0.9 -1.7,0 -3.3,-0.3 -4.6,-0.8 -1.4,-0.5 -2.5,-1.3 -3.5,-2.3 -0.9,-1 -1.7,-2.3 -2.2,-3.8 -0.5,-1.5 -0.7,-3.3 -0.7,-5.3 0,-1.9 0.3,-3.6 0.8,-5.1 0.5,-1.5 1.3,-2.8 2.3,-4 1,-1.2 2.2,-2 3.6,-2.6 1.4,-0.6 3,-0.9 4.8,-0.9 1.7,0 3.3,0.3 4.6,0.8 1.4,0.5 2.5,1.3 3.5,2.3 1,1 1.7,2.3 2.2,3.8 0.5,1.5 0.7,3.3 0.7,5.3 z m -4.3,0.2 c 0,-1.5 -0.2,-2.8 -0.5,-3.9 -0.3,-1.1 -0.8,-2 -1.4,-2.8 -0.6,-0.7 -1.3,-1.3 -2.2,-1.7 -0.9,-0.4 -1.8,-0.6 -2.9,-0.6 -1.2,0 -2.3,0.2 -3.2,0.7 -0.9,0.5 -1.6,1.1 -2.2,1.9 -0.6,0.8 -1,1.8 -1.2,2.8 -0.3,1.1 -0.4,2.2 -0.4,3.4 0,1.5 0.2,2.8 0.5,3.9 0.3,1.1 0.8,2 1.4,2.8 0.6,0.8 1.3,1.3 2.2,1.7 0.9,0.4 1.8,0.6 2.9,0.6 1.2,0 2.3,-0.2 3.2,-0.7 0.9,-0.5 1.6,-1.1 2.2,-1.9 0.6,-0.8 1,-1.7 1.2,-2.8 0.3,-1.1 0.4,-2.3 0.4,-3.4 z"
       id="path12"
       inkscape:connector-curvature="0" />
    <path
       d="m 241.6,50.2 c 0,2 -0.3,3.8 -0.8,5.3 -0.5,1.6 -1.3,2.9 -2.3,4 -1,1.1 -2.2,1.9 -3.7,2.5 -1.4,0.6 -3.1,0.9 -4.9,0.9 -1.4,0 -2.9,-0.1 -4.3,-0.4 -1.5,-0.3 -2.9,-0.7 -4.4,-1.3 V 28.9 h 4.2 v 9.3 l -0.2,4.4 c 1.2,-1.6 2.5,-2.7 3.8,-3.4 1.4,-0.7 2.8,-1 4.4,-1 1.4,0 2.6,0.3 3.6,0.9 1,0.6 1.9,1.4 2.6,2.4 0.7,1 1.2,2.3 1.6,3.8 0.2,1.5 0.4,3.1 0.4,4.9 z m -4.3,0.2 c 0,-1.3 -0.1,-2.4 -0.3,-3.5 -0.2,-1 -0.5,-1.9 -0.9,-2.7 -0.4,-0.8 -0.9,-1.3 -1.5,-1.7 -0.6,-0.4 -1.4,-0.6 -2.2,-0.6 -0.5,0 -1.1,0.1 -1.6,0.3 -0.5,0.2 -1.1,0.5 -1.7,0.8 -0.6,0.4 -1.2,0.9 -1.8,1.6 -0.6,0.6 -1.3,1.4 -2.1,2.4 v 11.6 c 0.8,0.3 1.6,0.6 2.5,0.8 0.8,0.2 1.7,0.3 2.4,0.3 1,0 1.9,-0.1 2.7,-0.4 0.9,-0.3 1.6,-0.8 2.3,-1.5 0.7,-0.7 1.2,-1.6 1.6,-2.8 0.4,-1.2 0.6,-2.9 0.6,-4.6 z"
       id="path14"
       inkscape:connector-curvature="0" />
    <path
       d="M 256.1,32.3 H 249 v -3.4 h 11.3 v 30.3 h 7.1 v 3.5 h -19.2 v -3.5 h 7.9 z"
       id="path16"
       inkscape:connector-curvature="0" />
    <path
       d="m 295.1,49.4 c 0,0.6 0,1.1 0,1.5 0,0.4 0,0.8 -0.1,1.1 h -16.8 c 0,2.5 0.7,4.3 2.1,5.6 1.4,1.3 3.3,2 5.9,2 0.7,0 1.4,0 2.1,-0.1 0.7,0 1.4,-0.1 2,-0.2 0.7,-0.1 1.3,-0.2 1.9,-0.3 0.6,-0.1 1.2,-0.2 1.7,-0.4 V 62 c -1.1,0.3 -2.4,0.6 -3.8,0.8 -1.4,0.2 -2.9,0.3 -4.4,0.3 -2,0 -3.8,-0.3 -5.3,-0.8 -1.5,-0.6 -2.7,-1.4 -3.6,-2.4 -0.9,-1 -1.6,-2.3 -2.1,-3.9 -0.5,-1.6 -0.7,-3.3 -0.7,-5.2 0,-1.7 0.2,-3.3 0.7,-4.8 0.5,-1.5 1.2,-2.8 2.1,-4 0.9,-1.1 2.1,-2 3.4,-2.7 1.4,-0.7 2.9,-1 4.6,-1 1.7,0 3.2,0.3 4.4,0.8 1.3,0.5 2.4,1.3 3.3,2.2 0.9,0.9 1.6,2.1 2,3.5 0.3,1.4 0.6,2.9 0.6,4.6 z m -4.4,-0.6 c 0.1,-1.1 -0.1,-2 -0.3,-2.9 -0.2,-0.9 -0.6,-1.6 -1.2,-2.3 -0.5,-0.6 -1.2,-1.1 -2,-1.5 -0.8,-0.4 -1.7,-0.5 -2.8,-0.5 -0.9,0 -1.7,0.2 -2.5,0.5 -0.7,0.4 -1.4,0.8 -1.9,1.5 -0.5,0.6 -1,1.4 -1.3,2.3 -0.3,0.9 -0.5,1.9 -0.6,2.9 z"
       id="path18"
       inkscape:connector-curvature="0" />
  </g>
</svg>
